<svg width="32" height="32" viewBox="0 0 8.466 8.467" xmlns="http://www.w3.org/2000/svg">
  <defs>
    <clipPath id="a">
      <path transform="translate(0 1)" fill="#916ee5" d="M0 0h32v36H0Z"/>
    </clipPath>
  </defs>
  <g transform="matrix(.20482 0 0 .20482 .956 .342)" clip-path="url(#a)" clip-rule="evenodd" fill="#916ee5" fill-rule="evenodd">
    <path d="M15.648 23.253c.112.07.265.111.418.111.153 0 .295-.04.417-.111l1.712-1.022a.906.906 0 0 0 .418-.748V19.43a.934.934 0 0 0-.418-.749l-.367-.212-.978-.587-.377-.223a.803.803 0 0 0-.418-.11.83.83 0 0 0-.417.11l-1.712 1.022a.906.906 0 0 0-.417.749v2.053c0 .283.173.597.417.748l.652.385.428.253zm-.744-2.165v-1.264c0-.03.03-.08.051-.101l1.06-.627c.01 0 .03-.01.05-.01.031 0 .052.01.052.01l.112.07.947.567c.02.01.051.07.051.101V21.1c0 .03-.03.08-.05.1l-1.06.628c-.01 0-.03.01-.051.01-.03 0-.051-.01-.051-.01l-.275-.162-.5-.293-.285-.172c-.02-.03-.05-.081-.05-.112zm-1.11 2.833-.469-.283a14.487 14.487 0 0 0-.906 1.598c-.061.131-.133.273-.194.405-.846 1.891-1.06 3.398-.469 3.368.02 0 .051-.01.072-.01.163-.04.367-.182.59-.405.062-.06.123-.131.194-.202.56-.627 1.213-1.69 1.742-2.873.112-.243.204-.485.296-.718.04-.111.071-.202.102-.314l-.55-.333zm3.892 1.608c.53 1.183 1.182 2.235 1.742 2.873.061.07.133.141.194.202.224.223.428.364.59.405.031.01.052.01.072.01.59.03.387-1.477-.469-3.369a4.98 4.98 0 0 0-.193-.404 12.522 12.522 0 0 0-.887-1.568l-1.456.87c.03.09.05.172.091.273.102.222.204.455.316.708z"/>
    <path d="m31.674 13.381-3.739 2.306v9.66c0 .273-.316.84-.54.971L16.75 32.681c-.061.04-.275.101-.54.101s-.479-.06-.54-.101l-2.802-1.67-5.002-2.993-2.832-1.69-.04-.02-.979.607a2.113 2.113 0 0 1-1.11.314c-.978 0-1.824-.607-2.445-1.244.214 1.598 1.212 3.206 2.526 3.995L7 32.377l2.629 1.578 3.993 2.388c.724.434 1.63.667 2.578.667.937 0 1.854-.232 2.578-.667l10.646-6.363C30.91 29.09 32 27.148 32 25.368v-12.24a2.2 2.2 0 0 1-.326.253zm-27.191-.738c0-.273.316-.84.54-.971L15.669 5.31c.071-.041.275-.102.54-.102.275 0 .478.061.54.102l.122.07 4.004-2.468-2.089-1.254C18.063 1.233 17.156 1 16.21 1c-.938 0-1.855.233-2.578.668L2.995 8.02C1.508 8.91.418 10.853.418 12.633v6.494l4.065-2.519Zm14.731-.132c-.835-1.335-1.488-2.782-1.783-4.117l-8.435 5.21c-.907.556-.581 2.69.723 4.774.693 1.102 1.508 1.932 2.262 2.407V19.43c0-.82.458-1.629 1.15-2.044l1.723-1.021a2.352 2.352 0 0 1 1.202-.324c.428 0 .845.111 1.202.324l.377.222.978.587.367.212c.122.071.234.172.336.274l2.842-1.76c-1.12-.89-2.17-2.155-2.944-3.389zm1.304-.799c1.691 2.7 3.912 4.36 4.962 3.712l5.389-3.328c1.05-.647.52-3.358-1.172-6.059-1.69-2.7-3.912-4.36-4.961-3.712l-5.39 3.328c-1.049.647-.52 3.358 1.172 6.059zm4.686-7.91c.785-.233 2.415 1.163 3.637 3.136 1.223 1.962 1.57 3.752.785 3.985-.784.233-2.415-1.163-3.637-3.136-1.223-1.962-1.569-3.742-.785-3.985Z"/>
    <path d="m3.21 25.62 6.968-4.31a10.375 10.375 0 0 1-1.753-2.133c-.52-.82-.906-1.68-1.15-2.499l-6.97 4.32c-.54.333-.336 1.648.47 2.923.794 1.274 1.884 2.043 2.434 1.699z"/>
  </g>
</svg>
